<?xml version="1.0" standalone="no"?>
<!DOCTYPE svg PUBLIC "-//W3C//DTD SVG 20010904//EN"
 "http://www.w3.org/TR/2001/REC-SVG-20010904/DTD/svg10.dtd">
<svg version="1.0" xmlns="http://www.w3.org/2000/svg"
 width="1075.000000pt" height="1075.000000pt" viewBox="0 0 1075.000000 1075.000000"
 preserveAspectRatio="xMidYMid meet">
<metadata>
Created by potrace 1.11, written by Peter Selinger 2001-2013
</metadata>
<g transform="translate(0.000000,1075.000000) scale(0.100000,-0.100000)"
fill="#000000" stroke="none">
<path d="M4048 10745 c-2 -1 -48 -5 -103 -9 -55 -3 -111 -8 -125 -10 -14 -3
-47 -7 -75 -10 -100 -11 -143 -18 -290 -48 -193 -38 -170 -33 -282 -63 -139
-38 -375 -115 -392 -129 -8 -6 -16 -10 -17 -9 -4 3 -12 0 -89 -29 -114 -43
-444 -206 -555 -274 -36 -22 -76 -47 -89 -55 -90 -52 -407 -278 -453 -322 -7
-6 -42 -36 -78 -66 -126 -106 -417 -408 -540 -562 -130 -162 -350 -480 -350
-505 0 -3 -8 -18 -19 -32 -30 -43 -140 -258 -193 -377 -159 -355 -266 -712
-324 -1085 -3 -19 -7 -46 -10 -60 -2 -14 -6 -50 -9 -80 -4 -30 -8 -66 -10 -80
-25 -142 -25 -682 0 -880 2 -19 7 -58 10 -86 3 -29 7 -60 9 -70 2 -11 7 -39
10 -64 40 -294 156 -699 289 -1009 51 -121 184 -386 236 -471 22 -36 54 -90
72 -120 92 -153 314 -447 455 -599 143 -156 362 -363 464 -440 19 -14 37 -29
40 -32 3 -3 52 -41 109 -83 352 -261 734 -463 1146 -605 176 -61 418 -127 575
-156 84 -16 269 -44 330 -51 381 -40 775 -32 1120 23 52 8 109 17 125 19 163
21 494 113 750 209 83 30 91 34 210 86 121 53 351 172 436 224 l35 23 50 -45
c88 -79 228 -207 249 -228 12 -11 64 -58 116 -105 52 -47 96 -88 99 -91 3 -3
34 -32 70 -64 75 -67 255 -232 350 -320 36 -33 115 -105 175 -159 61 -55 121
-111 135 -125 14 -14 44 -41 65 -60 34 -29 193 -174 259 -236 17 -16 198 -180
242 -220 6 -5 56 -51 111 -102 55 -50 121 -111 148 -135 26 -24 62 -56 78 -71
16 -15 68 -62 115 -105 46 -42 96 -88 111 -102 14 -14 71 -65 125 -115 55 -49
107 -97 116 -105 65 -60 224 -206 242 -222 13 -11 67 -61 122 -111 54 -51 108
-100 120 -110 21 -18 22 -18 91 55 38 41 104 111 145 157 41 46 80 89 85 95
36 39 154 167 235 256 52 57 108 118 123 134 16 17 60 65 97 106 37 41 79 87
92 101 12 14 66 72 118 129 52 57 100 109 105 115 6 6 20 23 33 37 20 22 21
27 9 39 -16 16 -191 176 -217 199 -14 12 -111 101 -240 220 -15 14 -64 59
-110 100 -46 41 -102 93 -126 115 -38 36 -182 168 -224 205 -18 16 -183 167
-290 265 -36 33 -82 76 -104 95 -21 19 -55 51 -76 70 -39 36 -97 89 -185 169
-28 25 -98 89 -155 142 -58 53 -117 107 -131 120 -50 45 -202 184 -229 209
-15 14 -67 61 -115 105 -49 44 -93 85 -99 90 -6 6 -67 62 -136 125 -69 62
-127 116 -130 119 -3 3 -28 26 -55 51 -65 58 -255 231 -319 291 l-50 47 29 43
c17 24 33 46 36 49 8 7 112 172 176 280 110 184 231 441 308 650 15 41 31 84
36 95 9 23 78 246 84 273 2 9 15 62 29 117 14 55 36 163 50 240 26 147 30 172
41 270 4 33 9 73 11 90 21 182 21 703 -1 813 -2 11 -7 52 -10 89 -4 37 -8 75
-10 83 -2 8 -7 38 -11 65 -3 28 -8 59 -10 70 -2 11 -8 45 -14 75 -6 30 -12 66
-15 80 -37 198 -148 552 -245 780 -135 320 -348 687 -542 935 -205 262 -420
483 -683 704 -53 44 -189 147 -255 192 -36 24 -67 46 -70 49 -6 7 -121 79
-195 123 -298 177 -646 329 -964 421 -67 20 -132 38 -144 41 -12 3 -69 16
-127 30 -58 13 -121 27 -140 30 -19 3 -60 10 -90 15 -30 5 -75 12 -100 15 -25
3 -52 8 -60 10 -8 2 -49 7 -90 10 -41 3 -88 8 -105 11 -31 5 -572 13 -577 9z
m517 -1679 c58 -8 179 -28 258 -42 16 -3 77 -19 135 -35 360 -100 701 -280
986 -522 111 -95 209 -194 340 -347 12 -14 49 -63 82 -110 274 -382 433 -806
481 -1280 12 -129 6 -471 -11 -555 -2 -11 -7 -45 -11 -75 -44 -333 -195 -720
-398 -1025 -290 -435 -708 -778 -1182 -970 -158 -64 -394 -132 -520 -150 -22
-4 -67 -10 -100 -15 -177 -27 -529 -30 -665 -6 -14 3 -45 7 -70 10 -51 7 -87
13 -215 40 -190 41 -498 163 -683 273 -41 23 -77 43 -82 43 -5 0 -10 3 -12 8
-1 4 -39 31 -83 61 -346 233 -646 575 -839 954 -85 169 -102 208 -150 350 -55
164 -97 346 -112 482 -3 27 -8 61 -11 75 -9 46 -11 424 -2 500 22 195 32 252
70 405 113 452 350 864 689 1197 63 63 151 143 194 178 275 222 642 407 971
489 111 27 286 59 370 67 39 4 72 8 74 10 5 4 459 -4 496 -10z"/>
</g>
</svg>
